inDegrees=no
num_controls=7
num_derivatives=13
num_iterations=94
num_multipliers=7
num_parameters=0
num_slacks=7
num_states=26
objective=6.068560
objective_accelerations=0.353409
objective_balance=0.070595
objective_effort=0.409387
objective_height=5.124942
objective_ligament=0.110228
solver_duration=819.860686
status=Solve_Succeeded
success=true
DataType=double
version=3
OpenSimVersion=4.4-2022-07-23-0e9fedc
endheader
time	/jointset/ground_pelvis/pelvis_tilt/value	/jointset/ground_pelvis/pelvis_tx/value	/jointset/ground_pelvis/pelvis_ty/value	/jointset/hip_r/hip_flexion_r/value	/jointset/hip_r/hip_adduction_r/value	/jointset/hip_r/hip_rotation_r/value	/jointset/back/lumbar_extension/value	/jointset/patellofemoral_r/patellar_flexion_r/value	/jointset/knee_r/knee_flexion_r/value	/jointset/knee_r/knee_adduction_r/value	/jointset/knee_r/knee_rotation_r/value	/jointset/ankle_r/ankle_angle_r/value	/jointset/subtalar_r/subtalar_angle_r/value	/jointset/ground_pelvis/pelvis_tilt/speed	/jointset/ground_pelvis/pelvis_tx/speed	/jointset/ground_pelvis/pelvis_ty/speed	/jointset/hip_r/hip_flexion_r/speed	/jointset/hip_r/hip_adduction_r/speed	/jointset/hip_r/hip_rotation_r/speed	/jointset/back/lumbar_extension/speed	/jointset/patellofemoral_r/patellar_flexion_r/speed	/jointset/knee_r/knee_flexion_r/speed	/jointset/knee_r/knee_adduction_r/speed	/jointset/knee_r/knee_rotation_r/speed	/jointset/ankle_r/ankle_angle_r/speed	/jointset/subtalar_r/subtalar_angle_r/speed	/forceset/tau_hip_flexion_r	/forceset/tau_hip_adduction_r	/forceset/tau_hip_rotation_r	/forceset/tau_knee_flexion_r	/forceset/tau_ankle_angle_r	/forceset/tau_subtalar_angle_r	/forceset/tau_lumbar_extension	lambda_cid13_p0	lambda_cid14_p0	lambda_cid14_p1	lambda_cid14_p2	lambda_cid14_p3	lambda_cid14_p4	lambda_cid14_p5	/jointset/ground_pelvis/pelvis_tilt/accel	/jointset/ground_pelvis/pelvis_tx/accel	/jointset/ground_pelvis/pelvis_ty/accel	/jointset/hip_r/hip_flexion_r/accel	/jointset/hip_r/hip_adduction_r/accel	/jointset/hip_r/hip_rotation_r/accel	/jointset/back/lumbar_extension/accel	/jointset/patellofemoral_r/patellar_flexion_r/accel	/jointset/knee_r/knee_flexion_r/accel	/jointset/knee_r/knee_adduction_r/accel	/jointset/knee_r/knee_rotation_r/accel	/jointset/ankle_r/ankle_angle_r/accel	/jointset/subtalar_r/subtalar_angle_r/accel	gamma_cid13_p0	gamma_cid14_p0	gamma_cid14_p1	gamma_cid14_p2	gamma_cid14_p3	gamma_cid14_p4	gamma_cid14_p5
1.5	-0.0960405517775368	0.0780095999281204	0.8807652640787351	0.606692329634228	-0.2240697509220069	-0.155823699647149	-0.2672774793761963	0.6027494586154941	0.6027494586154079	0.03965561042055712	0.1745076000574509	0.262258327520801	0.06475422210472367	0.2031955831219426	0.09354379980056884	0.2826579293313394	-1.298566997971556	0.01883590008462117	-0.2528404436514034	0.6981054961670859	-1.626124028481155	-1.626124028481361	0.277736167009758	5.49366591058989e-05	-0.6174118074641554	-0.1571691900488873	-0.05488620462123606	-0.007594984795764548	0.005022166100892491	-0.3005101033774298	0.02558550603512697	-0.013424226349504	0.1136138599411219	-36.45084916650799	-33.70468840557815	-7.66083613158361	-2.968462973042601	7.812608385025663	-664.9950990962955	52.834193075835	0.002027451596626926	0.1357443283683996	-0.4020163158705074	-0.5365893416665286	-0.05435961143883441	-0.5045782212265812	0.9936046990811513	-0.9304027946356853	-0.9304027946357342	0.4155494198282201	-0.002315027349182604	-0.5245889038438953	-0.09476789822738096	1.017408823232378e-07	1.302150956020013e-07	-5.506985522560981e-07	1.148454002706293e-06	-6.971557219548156e-09	1.459597276934618e-07	-9.330609950660989e-07
1.51	-0.09400894206003896	0.07895168410281574	0.8835711130611358	0.5936816695103662	-0.2238848622749822	-0.1583765866863678	-0.2602475243301112	0.5864440022431723	0.586444002243199	0.04245539122827498	0.1745083044153145	0.2560586068685442	0.06317699089457778	0.2030965134134306	0.09485680412175665	0.2784546676736924	-1.303383725895986	0.01814000597731408	-0.2577336113275943	0.7077853492003222	-1.6347357501129	-1.634735750112952	0.2821984344515719	8.750365313791469e-05	-0.6224463171649233	-0.1582505146637416	-0.04962841132874836	-0.009320011139926775	0.004404046721631065	-0.2979572476700723	0.0302755272969826	-0.0143683789282559	0.108738802181766	-37.1967740009487	-32.11387229108436	-7.703158846654102	-3.063582935023891	7.258327760509572	-662.4170634787853	52.86251737262629	-0.02033834376876355	0.1266462397532767	-0.438031003160149	-0.427003988151409	-0.07734420304166383	-0.4809935638908441	0.9401510286686109	-0.7918556836979481	-0.7918556836747381	0.4583031988512769	0.006477647532636823	-0.4799665172507596	-0.1108115553901747	1.1120925675102e-07	1.305140806777027e-07	-6.761071429008007e-07	1.167339384252339e-06	5.57975936006575e-09	1.486554143420112e-07	-1.021172523759367e-06
1.52	-0.09197921587196145	0.07990641187187512	0.88633321944447	0.5806282842131968	-0.2237069605475768	-0.1609782669069498	-0.2531237756690508	0.5700593688872554	0.5700593688874376	0.04529914226890716	0.1745094214601018	0.2498111242164674	0.06158974707582854	0.2028188772371447	0.09607251867337856	0.2739094095180174	-1.307112032633235	0.01743851616335734	-0.2625990799268055	0.7168642191624903	-1.641959425194808	-1.641959425194705	0.2865302135930881	0.0001374740372900266	-0.6269642074279923	-0.1591717117696122	-0.04437061803624678	-0.01104503748392866	0.003785927342551831	-0.2954043919627149	0.0349655485588871	-0.01531253150678405	0.1038637444223854	-37.90654449485999	-30.53277854432786	-7.743399678974681	-3.163357993511463	6.706046492690095	-659.9977612195567	52.96474855750542	-0.03368584195782577	0.1162863744549193	-0.470415615476114	-0.3189051042301264	-0.05547875276870308	-0.4990384058304446	0.8734080848677342	-0.6527934846682326	-0.652793484668228	0.3894517597686168	0.00116565067459537	-0.4212650163044446	-0.06274239643065896	1.205657381347828e-07	1.310961791633546e-07	-7.932941684000392e-07	1.186258785718163e-06	1.717861990062026e-08	1.504515387916114e-07	-1.102291573907145e-06
1.53	-0.08995317935360879	0.08087280191503465	0.8890482214371205	0.5675430440985321	-0.2235361468673394	-0.1636285552478275	-0.2459122142525249	0.553609428601596	0.5536094286017247	0.04818560686821023	0.1745112416643949	0.2435210423352676	0.05999403054436035	0.2023582693636353	0.09718822852210883	0.2690400702259785	-1.309755922380464	0.016723474065831	-0.267442748174083	0.7253482053875003	-1.647797934887897	-1.647797934887826	0.2907448440967952	0.0002192440396248278	-0.6309648812361019	-0.1599451869043004	-0.03911841124672896	-0.01284464024304195	0.003187652748157281	-0.2928810107861545	0.03974648648990114	-0.01640244525873123	0.09902003218006541	-38.57629191821667	-28.93810156716596	-7.852827269725267	-3.242665966175515	6.157289330425177	-657.7053496404395	52.97463920601768	-0.05675867029698049	0.1066307603970391	-0.5028005556225627	-0.2101053134764695	-0.07951206127847758	-0.4744477879334114	0.8209150787390358	-0.5148021027473789	-0.51480210275214	0.4347356296650144	0.01079022058482355	-0.3763560451531101	-0.08069624352618046	1.298033331592752e-07	1.31979085647079e-07	-9.017457809322218e-07	1.20521433334875e-06	2.776549589967418e-08	1.512918784048281e-07	-1.17598111560034e-06
1.54	-0.08793265099603476	0.08184983255074486	0.8917130085429398	0.554436770205695	-0.2233724826326842	-0.1663267636219251	-0.238618808736268	0.5371080187407055	0.5371080187408894	0.05111367115933186	0.1745137010779567	0.2371935762195685	0.0583913700272385	0.2017172450801208	0.09820063718351657	0.2638664321517553	-1.311318788267982	0.01600862704690193	-0.2721830865716519	0.7332330391093462	-1.65225334022571	-1.65225334022567	0.2948501519602067	0.0002653158648216386	-0.634441054327767	-0.16056050890051	-0.03386620445722476	-0.01464424300202117	0.002589378154623019	-0.2903576296096168	0.04452742442095286	-0.01749235901050867	0.09417631993769676	-39.20223179032977	-27.35357878723752	-7.959613507998245	-3.327443736252415	5.610122702261206	-655.5817499445833	53.06323737165218	-0.06976912395845071	0.09562613699010458	-0.5312753719129546	-0.1027003322878165	-0.05543973704919285	-0.478372435888425	0.75357758423514	-0.3761726136128544	-0.3761726136128262	0.3675872317094182	-0.005973984753343941	-0.316364873015879	-0.03111176873489103	1.398708877396768e-07	1.333351318990692e-07	-1.022534015492584e-06	1.22280411221583e-06	3.868580552089378e-08	1.56689739359924e-07	-1.253102070564152e-06
1.55	-0.08591941942033658	0.08283647184457793	0.8943246056896687	0.5413202022708761	-0.2232159849884117	-0.1690720832036666	-0.2312496058917237	0.5205689408180662	0.5205689408182117	0.05408217781841995	0.1745166444540628	0.2308339790225606	0.056783327293458	0.2008955538956422	0.09910971512827986	0.2584078151149645	-1.311810369398733	0.01529357825570302	-0.2768574342709552	0.7405072618284173	-1.655328153153608	-1.655328153153595	0.2988271776086814	0.000309893386298193	-0.6373864856052852	-0.1610177312492889	-0.02852815748888714	-0.01663517685036446	0.001998125666563101	-0.288022880859245	0.04963201487340981	-0.01872038142912856	0.08929797685080476	-39.78071812998562	-25.67903629872675	-8.116913298852181	-3.396977303250537	5.004883283203172	-653.5784589159183	53.11173612820532	-0.09338367476214175	0.08593390826228577	-0.5598975304510212	0.00529259040846467	-0.07904489956572551	-0.4582298197316395	0.6993044207953812	-0.2380533635313335	-0.2380533635352239	0.4090715459241668	0.007865991230018732	-0.2698215588887776	-0.0485279087937559	1.508947000692781e-07	1.352363174492786e-07	-1.157536184128891e-06	1.238820287942347e-06	4.999028866330425e-08	1.673386575132718e-07	-1.334176610383243e-06
